<svg width="190" height="190" viewBox="0 0 190 190" fill="none" xmlns="http://www.w3.org/2000/svg">
<mask id="path-1-inside-1_122_167" fill="white">
<path d="M0.452095 100.099C1.41234 117.821 7.34537 134.913 17.5714 149.419L23.8591 144.986C14.4658 131.662 9.01597 115.961 8.13393 99.6829L0.452095 100.099Z"/>
</mask>
<path d="M0.452095 100.099C1.41234 117.821 7.34537 134.913 17.5714 149.419L23.8591 144.986C14.4658 131.662 9.01597 115.961 8.13393 99.6829L0.452095 100.099Z" stroke="#00F7EA" stroke-width="6" mask="url(#path-1-inside-1_122_167)"/>
<mask id="path-2-inside-2_122_167" fill="white">
<path d="M1.00401 83.5887C3.05085 66.7501 9.59381 50.7733 19.9458 37.336L26.0401 42.031C16.5312 54.374 10.5211 69.0497 8.64089 84.517L1.00401 83.5887Z"/>
</mask>
<path d="M1.00401 83.5887C3.05085 66.7501 9.59381 50.7733 19.9458 37.336L26.0401 42.031C16.5312 54.374 10.5211 69.0497 8.64089 84.517L1.00401 83.5887Z" stroke="#D0F95D" stroke-width="6" mask="url(#path-2-inside-2_122_167)"/>
<mask id="path-3-inside-3_122_167" fill="white">
<path d="M31.9575 24.4382C44.2315 13.5085 59.1445 5.97011 75.2233 2.56762L76.816 10.094C62.0466 13.2194 48.348 20.144 37.0737 30.1836L31.9575 24.4382Z"/>
</mask>
<path d="M31.9575 24.4382C44.2315 13.5085 59.1445 5.97011 75.2233 2.56762L76.816 10.094C62.0466 13.2194 48.348 20.144 37.0737 30.1836L31.9575 24.4382Z" stroke="#FFC700" stroke-width="6" mask="url(#path-3-inside-3_122_167)"/>
<mask id="path-4-inside-4_122_167" fill="white">
<path d="M92.856 0.540604C108.547 0.22085 124.071 3.81551 138.024 10.9998L134.502 17.8395C121.685 11.2403 107.426 7.93839 93.0127 8.23211L92.856 0.540604Z"/>
</mask>
<path d="M92.856 0.540604C108.547 0.22085 124.071 3.81551 138.024 10.9998L134.502 17.8395C121.685 11.2403 107.426 7.93839 93.0127 8.23211L92.856 0.540604Z" stroke="#005FFF" stroke-width="6" mask="url(#path-4-inside-4_122_167)"/>
<mask id="path-5-inside-5_122_167" fill="white">
<path d="M153.605 21.0712C165.829 30.7995 175.45 43.4076 181.606 57.7665L174.535 60.7977C168.88 47.6082 160.043 36.0268 148.815 27.0908L153.605 21.0712Z"/>
</mask>
<path d="M153.605 21.0712C165.829 30.7995 175.45 43.4076 181.606 57.7665L174.535 60.7977C168.88 47.6082 160.043 36.0268 148.815 27.0908L153.605 21.0712Z" stroke="#00F7EA" stroke-width="6" mask="url(#path-5-inside-5_122_167)"/>
</svg>
